<svg width="87" height="42" viewBox="0 0 87 42" fill="none" xmlns="http://www.w3.org/2000/svg">
<path fill-rule="evenodd" clip-rule="evenodd" d="M36.6047 32.6983C38.8859 32.7297 40.9074 31.2159 41.5503 28.9985C42.1932 26.7749 41.303 24.3943 39.3742 23.1631C37.4455 21.932 34.9418 22.1581 33.2541 23.7159C33.8909 20.7322 32.8338 17.6355 30.5279 15.6883C28.2159 13.7348 25.026 13.2448 22.2565 14.4194C19.4808 15.594 17.5768 18.2385 17.3171 21.285C15.8273 20.4558 14.0283 20.437 12.5261 21.241C11.0239 22.045 10.0163 23.5589 9.84935 25.28C8.55733 24.7021 7.05512 24.9345 5.99183 25.8767C4.92236 26.8189 4.4958 28.3013 4.88526 29.6832C5.27473 31.0588 6.4122 32.0827 7.80313 32.3088C8.89115 32.6983 11.2444 32.8281 14.8629 32.6983C22.1081 32.7569 29.3554 32.7569 36.6047 32.6983Z" fill="#ADC7C2"/>
<path fill-rule="evenodd" clip-rule="evenodd" d="M4.17238 9.9828C6.21153 12.9429 5.39477 14.2913 1.73308 13.6445C4.78084 15.7768 4.42454 17.2788 0.888916 17.9311C4.42454 18.5779 4.80276 20.1402 1.76049 22.2725C5.42218 21.6312 6.21701 22.9248 4.17786 25.8794C7.13244 23.8402 8.45898 24.668 7.81763 28.3297C9.94997 25.2819 11.5067 25.6437 12.1536 29.1793C12.8004 25.6437 14.2914 25.3093 16.4237 28.3571C15.7769 24.6954 17.1473 23.8676 20.1073 25.9068C18.0682 22.9467 18.8411 21.6421 22.5028 22.289C19.455 20.1566 19.8826 18.5779 23.4182 17.9311C19.8826 17.2788 19.4989 15.7056 22.5412 13.5678C18.8795 14.2146 18.0737 12.9209 20.1128 9.96087C17.1582 12 15.8975 11.1723 16.5388 7.51061C14.3188 10.5529 12.8278 10.2021 12.1536 6.66644C11.4793 10.2021 9.98286 10.6022 7.76282 7.55446C8.40416 11.2162 7.12695 12.0219 4.17238 9.9828Z" fill="#C6A372"/>
<path fill-rule="evenodd" clip-rule="evenodd" d="M12.154 25.2868C16.2104 25.2868 19.5158 21.9759 19.5158 17.9196C19.5158 13.8687 16.2104 10.5578 12.154 10.5578C8.09763 10.5578 4.79224 13.8687 4.79224 17.9196C4.79224 21.9759 8.09763 25.2868 12.154 25.2868Z" fill="#EAAE5A"/>
<path opacity="0.6" fill-rule="evenodd" clip-rule="evenodd" d="M12.1532 10.5578C15.1571 10.5578 17.5854 12.575 17.5854 15.0582C17.5854 17.5468 15.1571 19.5586 12.1532 19.5586C9.14929 19.5586 6.72095 17.5468 6.72095 15.0582C6.72095 12.575 9.14929 10.5578 12.1532 10.5578Z" fill="#FFC16A"/>
<path opacity="0.5" fill-rule="evenodd" clip-rule="evenodd" d="M5.43286 20.9349C7.12119 22.8809 9.57146 23.9991 12.1533 23.9991C14.7351 23.9991 17.1854 22.8809 18.8737 20.9349C17.6897 23.5825 15.0585 25.2873 12.1533 25.2873C9.24804 25.2873 6.61688 23.5825 5.43286 20.9349Z" fill="#CE9C54"/>
<path fill-rule="evenodd" clip-rule="evenodd" d="M35.6104 32.3199C37.6331 32.3473 39.4256 31.0262 39.9957 29.0912C40.5658 27.1507 39.7764 25.0732 38.0662 23.9988C36.3559 22.9244 34.1359 23.1218 32.6394 24.4812C33.204 21.8774 32.2667 19.175 30.222 17.4757C28.1719 15.771 25.3434 15.3434 22.8877 16.3685C20.4264 17.3935 18.7381 19.7013 18.5079 22.3598C17.1868 21.6363 15.5917 21.6198 14.2597 22.3215C12.9276 23.0231 12.0341 24.3442 11.8861 25.8461C10.7405 25.3418 9.40846 25.5446 8.46563 26.3669C7.51732 27.1891 7.13909 28.4828 7.48443 29.6887C7.82977 30.8892 8.83838 31.7827 10.0717 31.98C11.0365 32.3199 13.1231 32.4332 16.3317 32.3199C22.7561 32.371 29.1824 32.371 35.6104 32.3199Z" fill="white"/>
<path opacity="0.1" fill-rule="evenodd" clip-rule="evenodd" d="M25.8639 15.8203C28.8678 15.8203 31.3016 17.832 31.3016 20.3206C31.3016 22.8038 28.8678 24.821 25.8639 24.821C22.8655 24.821 20.4316 22.8038 20.4316 20.3206C20.4316 17.832 22.8655 15.8203 25.8639 15.8203Z" fill="#EAF1F0"/>
<path fill-rule="evenodd" clip-rule="evenodd" d="M35.6104 32.3196C37.6331 32.347 39.4256 31.0259 39.9957 29.0909C40.5438 27.2272 39.8367 25.2264 38.2525 24.1246C38.1922 24.0807 38.0826 23.9273 38.0662 23.9985C35.9996 31.9304 14.9339 32.8458 11.8861 25.8458C11.8569 25.8312 11.8258 25.8184 11.793 25.8074C10.6692 25.3525 9.38106 25.5662 8.46563 26.3666C7.51732 27.1888 7.13909 28.4824 7.48443 29.6884C7.82977 30.8889 8.83838 31.7824 10.0717 31.9797C11.0365 32.3196 13.1231 32.4328 16.3317 32.3196C22.7561 32.3707 29.1824 32.3707 35.6104 32.3196Z" fill="#EAF1F0"/>
<mask id="mask0_267_26616" style="mask-type:alpha" maskUnits="userSpaceOnUse" x="4" y="13" width="38" height="20">
<path fill-rule="evenodd" clip-rule="evenodd" d="M36.6047 32.6987C38.8859 32.7301 40.9074 31.2163 41.5503 28.999C42.1932 26.7754 41.303 24.3947 39.3742 23.1636C37.4455 21.9324 34.9418 22.1585 33.2541 23.7163C33.8909 20.7327 32.8338 17.6359 30.5279 15.6887C28.2159 13.7352 25.026 13.2452 22.2565 14.4198C19.4808 15.5945 17.5768 18.2389 17.3171 21.2854C15.8273 20.4563 14.0283 20.4374 12.5261 21.2414C11.0239 22.0455 10.0163 23.5593 9.84935 25.2804C8.55733 24.7025 7.05512 24.9349 5.99183 25.8771C4.92236 26.8193 4.4958 28.3017 4.88526 29.6836C5.27473 31.0593 6.4122 32.0831 7.80313 32.3093C8.89115 32.6987 11.2444 32.8285 14.8629 32.6987C22.1081 32.7573 29.3554 32.7573 36.6047 32.6987Z" fill="#ADC7C2"/>
<path fill-rule="evenodd" clip-rule="evenodd" d="M35.6104 32.3197C37.6331 32.3471 39.4256 31.026 39.9957 29.091C40.5658 27.1505 39.7764 25.073 38.0662 23.9986C36.3559 22.9243 34.1359 23.1216 32.6394 24.481C33.204 21.8773 32.2667 19.1748 30.222 17.4756C28.1719 15.7708 25.3434 15.3432 22.8877 16.3683C20.4264 17.3933 18.7381 19.7011 18.5079 22.3596C17.1868 21.6361 15.5917 21.6196 14.2597 22.3213C12.9276 23.0229 12.0341 24.344 11.8861 25.8459C10.7405 25.3416 9.40846 25.5444 8.46563 26.3667C7.51732 27.1889 7.13909 28.4826 7.48443 29.6885C7.82977 30.889 8.83838 31.7825 10.0717 31.9798C11.0365 32.3197 13.1231 32.433 16.3317 32.3197C22.7561 32.3708 29.1824 32.3708 35.6104 32.3197Z" fill="white"/>
</mask>
<g mask="url(#mask0_267_26616)">
<rect opacity="0.06" x="25.7514" y="11.9209" width="20.7639" height="25.2778" fill="#443D32" stroke="#443D32" stroke-width="0.902778"/>
</g>
<ellipse opacity="0.1" cx="22.5918" cy="38.7084" rx="19.8611" ry="2.70833" fill="#327267"/>
<path d="M51.5313 15.954C51.0156 15.954 50.556 15.8655 50.1523 15.6884C49.7513 15.5113 49.4323 15.2652 49.1953 14.9501C48.9609 14.6324 48.8333 14.2639 48.8125 13.8447H49.7969C49.8177 14.1025 49.9063 14.3251 50.0625 14.5126C50.2188 14.6975 50.4232 14.8408 50.6758 14.9423C50.9284 15.0439 51.2083 15.0947 51.5156 15.0947C51.8594 15.0947 52.1641 15.0348 52.4297 14.915C52.6953 14.7952 52.9036 14.6285 53.0547 14.415C53.2057 14.2014 53.2813 13.954 53.2813 13.6728C53.2813 13.3785 53.2083 13.1194 53.0625 12.8954C52.9167 12.6689 52.7031 12.4918 52.4219 12.3642C52.1406 12.2366 51.7969 12.1728 51.3906 12.1728H50.75V11.3134H51.3906C51.7083 11.3134 51.987 11.2561 52.2266 11.1415C52.4688 11.027 52.6576 10.8655 52.793 10.6572C52.931 10.4488 53 10.204 53 9.92279C53 9.65196 52.9401 9.41628 52.8203 9.21576C52.7005 9.01524 52.5313 8.85899 52.3125 8.74701C52.0964 8.63503 51.8411 8.57904 51.5469 8.57904C51.2708 8.57904 51.0104 8.62982 50.7656 8.73138C50.5234 8.83034 50.3255 8.97487 50.1719 9.16498C50.0182 9.35248 49.9349 9.57904 49.9219 9.84467H48.9844C49 9.42539 49.1263 9.05821 49.3633 8.7431C49.6003 8.42539 49.9102 8.178 50.293 8.00092C50.6784 7.82383 51.1016 7.73529 51.5625 7.73529C52.0573 7.73529 52.4818 7.83555 52.8359 8.03607C53.1901 8.23399 53.4622 8.49571 53.6523 8.82123C53.8424 9.14675 53.9375 9.49831 53.9375 9.87592C53.9375 10.3264 53.819 10.7106 53.582 11.0283C53.3477 11.346 53.0286 11.566 52.625 11.6884V11.7509C53.1302 11.8342 53.5247 12.0491 53.8086 12.3954C54.0924 12.7392 54.2344 13.165 54.2344 13.6728C54.2344 14.1077 54.1159 14.4983 53.8789 14.8447C53.6445 15.1884 53.3242 15.4592 52.918 15.6572C52.5117 15.8551 52.0495 15.954 51.5313 15.954ZM58.4414 15.954C57.8529 15.954 57.3516 15.7939 56.9375 15.4736C56.5234 15.1507 56.207 14.6832 55.9883 14.0712C55.7695 13.4566 55.6602 12.7145 55.6602 11.8447C55.6602 10.9801 55.7695 10.2418 55.9883 9.62982C56.2096 9.01524 56.5273 8.54649 56.9414 8.22357C57.3581 7.89805 57.8581 7.73529 58.4414 7.73529C59.0247 7.73529 59.5234 7.89805 59.9375 8.22357C60.3542 8.54649 60.6719 9.01524 60.8906 9.62982C61.112 10.2418 61.2227 10.9801 61.2227 11.8447C61.2227 12.7145 61.1133 13.4566 60.8945 14.0712C60.6758 14.6832 60.3594 15.1507 59.9453 15.4736C59.5313 15.7939 59.0299 15.954 58.4414 15.954ZM58.4414 15.0947C59.0247 15.0947 59.4779 14.8134 59.8008 14.2509C60.1237 13.6884 60.2852 12.8863 60.2852 11.8447C60.2852 11.152 60.2109 10.5621 60.0625 10.0751C59.9167 9.58815 59.7057 9.21706 59.4297 8.96185C59.1563 8.70664 58.8268 8.57904 58.4414 8.57904C57.8633 8.57904 57.4115 8.8642 57.0859 9.43451C56.7604 10.0022 56.5977 10.8056 56.5977 11.8447C56.5977 12.5374 56.6706 13.1259 56.8164 13.6103C56.9622 14.0947 57.1719 14.4632 57.4453 14.7158C57.7214 14.9684 58.0534 15.0947 58.4414 15.0947ZM64.3789 11.3759C64.0482 11.3759 63.7461 11.2952 63.4727 11.1337C63.2018 10.9723 62.9857 10.7561 62.8242 10.4853C62.6628 10.2119 62.582 9.90977 62.582 9.57904C62.582 9.24831 62.6628 8.94753 62.8242 8.6767C62.9857 8.40326 63.2018 8.18581 63.4727 8.02435C63.7461 7.86289 64.0482 7.78217 64.3789 7.78217C64.7096 7.78217 65.0104 7.86289 65.2813 8.02435C65.5547 8.18581 65.7721 8.40326 65.9336 8.6767C66.0951 8.94753 66.1758 9.24831 66.1758 9.57904C66.1758 9.90977 66.0951 10.2119 65.9336 10.4853C65.7721 10.7561 65.5547 10.9723 65.2813 11.1337C65.0104 11.2952 64.7096 11.3759 64.3789 11.3759ZM64.3789 10.5947C64.5664 10.5947 64.737 10.5491 64.8906 10.4579C65.0443 10.3668 65.1667 10.2444 65.2578 10.0908C65.349 9.93711 65.3945 9.76654 65.3945 9.57904C65.3945 9.39154 65.349 9.22097 65.2578 9.06732C65.1667 8.91368 65.0443 8.79128 64.8906 8.70013C64.737 8.60899 64.5664 8.56342 64.3789 8.56342C64.1914 8.56342 64.0208 8.60899 63.8672 8.70013C63.7135 8.79128 63.5911 8.91368 63.5 9.06732C63.4089 9.22097 63.3633 9.39154 63.3633 9.57904C63.3633 9.76654 63.4089 9.93711 63.5 10.0908C63.5911 10.2444 63.7135 10.3668 63.8672 10.4579C64.0208 10.5491 64.1914 10.5947 64.3789 10.5947ZM74.1514 10.3447H73.1826C73.1253 10.066 73.0251 9.82123 72.8818 9.61029C72.7412 9.39935 72.5693 9.22227 72.3662 9.07904C72.1657 8.93321 71.943 8.82383 71.6982 8.75092C71.4535 8.678 71.1982 8.64154 70.9326 8.64154C70.4482 8.64154 70.0094 8.76394 69.6162 9.00873C69.2256 9.25352 68.9144 9.6142 68.6826 10.0908C68.4535 10.5673 68.3389 11.152 68.3389 11.8447C68.3389 12.5374 68.4535 13.122 68.6826 13.5986C68.9144 14.0751 69.2256 14.4358 69.6162 14.6806C70.0094 14.9254 70.4482 15.0478 70.9326 15.0478C71.1982 15.0478 71.4535 15.0113 71.6982 14.9384C71.943 14.8655 72.1657 14.7574 72.3662 14.6142C72.5693 14.4684 72.7412 14.29 72.8818 14.079C73.0251 13.8655 73.1253 13.6207 73.1826 13.3447H74.1514C74.0785 13.7535 73.9456 14.1194 73.7529 14.4423C73.5602 14.7652 73.3206 15.04 73.0342 15.2665C72.7477 15.4905 72.4261 15.6611 72.0693 15.7783C71.7152 15.8954 71.3363 15.954 70.9326 15.954C70.2503 15.954 69.6436 15.7874 69.1123 15.454C68.5811 15.1207 68.1631 14.6467 67.8584 14.0322C67.5537 13.4176 67.4014 12.6884 67.4014 11.8447C67.4014 11.0009 67.5537 10.2717 67.8584 9.65717C68.1631 9.04258 68.5811 8.56862 69.1123 8.23529C69.6436 7.90196 70.2503 7.73529 70.9326 7.73529C71.3363 7.73529 71.7152 7.79388 72.0693 7.91107C72.4261 8.02826 72.7477 8.20013 73.0342 8.4267C73.3206 8.65065 73.5602 8.92409 73.7529 9.24701C73.9456 9.56732 74.0785 9.93321 74.1514 10.3447Z" fill="#443D32"/>
<path d="M49.4148 33.8447H48.3068L51.5114 25.1174H52.6023L55.8068 33.8447H54.6989L52.0909 26.4981H52.0227L49.4148 33.8447ZM49.8239 30.4356H54.2898V31.3731H49.8239V30.4356ZM59.9265 31.1174H61.0856L62.0572 32.3958L62.3129 32.7367L63.7617 34.6628H62.6026L61.6481 33.3844L61.4094 33.0606L59.9265 31.1174ZM64.1197 29.481C64.1197 30.4015 63.9535 31.1969 63.6211 31.8674C63.2887 32.5378 62.8327 33.0549 62.2532 33.4185C61.6737 33.7822 61.0117 33.964 60.2674 33.964C59.5231 33.964 58.8612 33.7822 58.2816 33.4185C57.7021 33.0549 57.2461 32.5378 56.9137 31.8674C56.5813 31.1969 56.4151 30.4015 56.4151 29.481C56.4151 28.5606 56.5813 27.7651 56.9137 27.0947C57.2461 26.4242 57.7021 25.9072 58.2816 25.5435C58.8612 25.1799 59.5231 24.9981 60.2674 24.9981C61.0117 24.9981 61.6737 25.1799 62.2532 25.5435C62.8327 25.9072 63.2887 26.4242 63.6211 27.0947C63.9535 27.7651 64.1197 28.5606 64.1197 29.481ZM63.0969 29.481C63.0969 28.7253 62.9705 28.0876 62.7177 27.5677C62.4677 27.0478 62.1282 26.6543 61.6992 26.3873C61.2731 26.1202 60.7958 25.9867 60.2674 25.9867C59.739 25.9867 59.2603 26.1202 58.8313 26.3873C58.4052 26.6543 58.0657 27.0478 57.8129 27.5677C57.5629 28.0876 57.4379 28.7253 57.4379 29.481C57.4379 30.2367 57.5629 30.8745 57.8129 31.3944C58.0657 31.9143 58.4052 32.3077 58.8313 32.5748C59.2603 32.8418 59.739 32.9753 60.2674 32.9753C60.7958 32.9753 61.2731 32.8418 61.6992 32.5748C62.1282 32.3077 62.4677 31.9143 62.7177 31.3944C62.9705 30.8745 63.0969 30.2367 63.0969 29.481ZM66.9535 25.1174V33.8447H65.8967V25.1174H66.9535ZM75.0213 33.964C74.5213 33.964 74.071 33.8646 73.6705 33.6657C73.2699 33.4668 72.9489 33.1941 72.7074 32.8475C72.4659 32.5009 72.3338 32.106 72.3111 31.6628H73.3338C73.3736 32.0577 73.5526 32.3844 73.8707 32.643C74.1918 32.8986 74.5753 33.0265 75.0213 33.0265C75.3793 33.0265 75.6974 32.9427 75.9759 32.7751C76.2571 32.6074 76.4773 32.3773 76.6364 32.0847C76.7983 31.7893 76.8793 31.4555 76.8793 31.0833C76.8793 30.7026 76.7955 30.3631 76.6278 30.0648C76.4631 29.7637 76.2358 29.5265 75.946 29.3532C75.6563 29.1799 75.3253 29.0918 74.9531 29.089C74.6861 29.0861 74.4119 29.1273 74.1307 29.2126C73.8494 29.2949 73.6179 29.4015 73.4361 29.5322L72.4474 29.4128L72.9759 25.1174H77.5099V26.0549H73.8622L73.5554 28.6288H73.6065C73.7855 28.4867 74.0099 28.3688 74.2798 28.2751C74.5497 28.1813 74.831 28.1344 75.1236 28.1344C75.6577 28.1344 76.1335 28.2623 76.5511 28.518C76.9716 28.7708 77.3011 29.1174 77.5398 29.5577C77.7812 29.9981 77.902 30.5009 77.902 31.0663C77.902 31.6231 77.777 32.1202 77.527 32.5577C77.2798 32.9924 76.9389 33.3361 76.5043 33.589C76.0696 33.839 75.5753 33.964 75.0213 33.964ZM82.4414 33.964C81.7994 33.964 81.2525 33.7893 80.8008 33.4398C80.3491 33.0876 80.0039 32.5776 79.7653 31.91C79.5266 31.2396 79.4073 30.4299 79.4073 29.481C79.4073 28.5378 79.5266 27.7324 79.7653 27.0648C80.0067 26.3944 80.3533 25.883 80.805 25.5307C81.2596 25.1756 81.805 24.9981 82.4414 24.9981C83.0778 24.9981 83.6218 25.1756 84.0735 25.5307C84.5281 25.883 84.8746 26.3944 85.1133 27.0648C85.3548 27.7324 85.4755 28.5378 85.4755 29.481C85.4755 30.4299 85.3562 31.2396 85.1175 31.91C84.8789 32.5776 84.5337 33.0876 84.082 33.4398C83.6303 33.7893 83.0835 33.964 82.4414 33.964ZM82.4414 33.0265C83.0778 33.0265 83.5721 32.7197 83.9244 32.106C84.2766 31.4924 84.4528 30.6174 84.4528 29.481C84.4528 28.7253 84.3718 28.0819 84.2099 27.5506C84.0508 27.0194 83.8207 26.6146 83.5195 26.3361C83.2212 26.0577 82.8619 25.9185 82.4414 25.9185C81.8107 25.9185 81.3178 26.2296 80.9627 26.8518C80.6076 27.4711 80.43 28.3475 80.43 29.481C80.43 30.2367 80.5096 30.8788 80.6687 31.4072C80.8278 31.9356 81.0565 32.3376 81.3548 32.6131C81.6559 32.8887 82.0181 33.0265 82.4414 33.0265Z" fill="#327267"/>
</svg>
