<svg width="235" height="42" viewBox="0 0 235 42" fill="none" xmlns="http://www.w3.org/2000/svg">
<path d="M10.0996 40.7293V40.7081C10.277 39.7604 10.277 38.2066 10.277 36.9587C10.277 34.9663 9.52582 33.7317 7.06903 31.698C6.9346 32.1019 6.866 32.5247 6.86588 32.9504C6.92615 35.6215 6.92392 36.9018 6.74756 37.8617H7.82247V35.6472C7.82247 34.5097 7.82248 33.9728 7.58361 33.4326L7.70304 33.3723C8.72103 34.33 9.31932 35.2877 9.31932 37.3818C9.3796 38.6989 9.31932 39.776 9.08045 40.7304L10.0996 40.7293Z" fill="#D4A76B"/>
<path d="M13.8726 41.686V37.1386C13.8726 33.3881 11.4169 30.5462 9.2961 29.2402C8.08724 30.2526 7.48002 30.8442 7.17529 31.4671L7.19204 31.4827C9.45014 33.3457 10.5251 34.6416 10.5251 36.9588C10.5251 38.2079 10.5251 39.7594 10.3476 40.7294H11.4225V37.1386C11.4225 35.0434 10.7639 32.9494 8.25021 31.4526C8.57704 31.0442 8.93733 30.6637 9.32736 30.3152C12.0799 32.2306 12.9182 34.4452 12.9182 36.9008C12.9182 39.2951 12.9182 40.7317 12.6793 41.6894L13.8726 41.686Z" fill="#D4A76B"/>
<path d="M7.82774 19.242H7.76746L6.87449 19.6159V23.4914C6.86581 24.2853 6.97874 25.0758 7.20935 25.8355L8.18158 25.1869C9.47862 24.3442 10.2834 22.594 10.2834 20.6183V19.3123L9.3257 19.002V21.0972C9.3257 22.354 8.96628 23.372 7.7697 24.5083L7.65026 24.448C7.76969 24.0886 7.82997 23.3709 7.82997 22.892L7.82774 19.242Z" fill="#D4A76B"/>
<path d="M5.49317 37.8557H6.5067L6.51339 37.8301C6.68864 36.8936 6.69087 35.6233 6.62501 32.9511V32.9433C6.64734 32.3729 6.70873 31.9387 6.8784 31.5234C3.49068 28.3121 3.09443 25.2727 3.09443 23.2512C3.09443 22.174 3.09442 21.8057 2.99508 21.1728L1.89673 21.6349C2.07644 22.2935 2.1356 23.4309 2.19587 24.2089C2.49502 27.2015 3.6916 29.7152 6.02673 32.0492C5.78785 32.7077 5.72758 33.6052 5.72758 34.5049C5.73205 35.342 5.73204 36.898 5.49317 37.8557Z" fill="#D4A76B"/>
<path d="M9.48804 29.0792C11.3633 30.2602 13.474 32.602 13.992 35.6984C14.5099 32.6031 16.6206 30.2602 18.4959 29.0792C16.8104 27.7152 15.7846 26.6236 15.0792 25.4392C14.5139 24.4892 14.1442 23.4356 13.992 22.3406C13.8397 23.4356 13.47 24.4892 12.9048 25.4392C12.1993 26.6213 11.1746 27.7141 9.48804 29.0792ZM13.992 24.928H14.0522C14.4708 26.1849 16.0871 28.4597 17.4009 28.9978V29.1172C16.0837 29.6563 14.4686 31.9301 14.0522 33.1869H13.9328C13.5142 31.9301 11.8979 29.6552 10.5842 29.1172V28.9978C11.9013 28.4586 13.5165 26.1849 13.9328 24.928H13.992Z" fill="#D4A76B"/>
<path d="M4.17646 20.6788L3.22656 21.0785C3.33818 21.7683 3.33818 22.1567 3.33818 23.2528C3.33818 27.2712 5.36523 29.7492 6.99044 31.2963C7.31861 30.6712 7.93811 30.0685 9.10344 29.0873C7.44028 27.6362 6.63102 25.8067 6.63102 23.4928V19.7178L5.61303 20.1419C5.73247 20.9802 5.73247 22.0574 5.73247 22.9548C5.73247 25.2296 6.39104 27.5637 7.94704 29.0002C7.57669 29.3286 7.23603 29.6891 6.92905 30.0774C5.31277 28.7011 4.23563 25.9474 4.23563 23.4337V20.6811L4.17646 20.6788Z" fill="#D4A76B"/>
<path d="M27.9445 12.5432C27.7152 12.4566 27.4788 12.3902 27.238 12.3445C26.5566 12.2152 25.8612 12.1758 25.1696 12.2273C24.2577 12.2708 23.3625 12.4505 22.4706 12.6302C21.2271 12.8691 19.9814 13.0834 18.7402 13.3245C18.7145 13.1004 18.6727 12.8785 18.6152 12.6604C19.8352 12.3333 21.0463 11.9806 22.2674 11.6558C24.0009 11.2149 25.9152 10.6512 27.2045 9.34187C27.2135 9.33181 27.2196 9.3195 27.2222 9.30625C27.2248 9.29299 27.2237 9.2793 27.2191 9.2666C27.2146 9.25389 27.2066 9.24265 27.1962 9.23409C27.1857 9.22553 27.1732 9.21997 27.1598 9.21798C26.9172 9.189 26.6726 9.18114 26.4287 9.19452C25.7391 9.233 25.0576 9.36212 24.4017 9.57852C23.531 9.83971 22.7084 10.2248 21.8902 10.6188C20.7494 11.149 19.5997 11.6547 18.4611 12.1815C18.3795 11.9679 18.2825 11.7605 18.1709 11.5609C19.2704 10.9515 20.3565 10.3197 21.4571 9.70799C23.0254 8.86525 24.7399 7.86178 25.6663 6.28233C25.6733 6.27031 25.6767 6.25658 25.6763 6.24271C25.6759 6.22883 25.6716 6.21535 25.664 6.20377C25.6563 6.19218 25.6456 6.18295 25.633 6.17711C25.6204 6.17128 25.6064 6.16906 25.5927 6.17071C25.3513 6.20089 25.113 6.25204 24.8805 6.32362C23.3412 6.78685 22.0542 7.77471 20.8398 8.79046C20.1422 9.36643 19.4211 9.90666 18.719 10.477C18.4466 10.6943 18.1754 10.9131 17.9053 11.1334C17.7719 10.9443 17.6253 10.7649 17.4666 10.5965C18.3797 9.74482 19.2749 8.87528 20.1879 8.02138C21.504 6.82703 22.9215 5.44071 23.4361 3.68713C23.4394 3.67397 23.439 3.66017 23.435 3.64721C23.431 3.63425 23.4236 3.62261 23.4135 3.61355C23.4034 3.6045 23.391 3.59836 23.3777 3.59579C23.3644 3.59321 23.3506 3.5943 23.3379 3.59895C23.1114 3.68616 22.8929 3.79296 22.6849 3.91817C21.3053 4.73747 20.2984 6.00551 19.3675 7.28246C18.8306 8.00911 18.2647 8.70897 17.72 9.42782C17.5124 9.69943 17.3059 9.97217 17.1005 10.246C16.9248 10.0932 16.7383 9.95331 16.5424 9.82743C17.2188 8.786 17.8718 7.73228 18.5516 6.68974C19.5383 5.21522 20.5753 3.53422 20.6478 1.71144C20.6472 1.69868 20.6433 1.68627 20.6365 1.67544C20.6298 1.66461 20.6204 1.65571 20.6092 1.64955C20.598 1.6434 20.5854 1.6402 20.5726 1.64029C20.5598 1.64037 20.5473 1.64373 20.5362 1.65004C20.3369 1.78895 20.1501 1.94507 19.9781 2.11661C18.8396 3.24176 18.1709 4.71182 17.5782 6.17183C17.2344 7.00452 16.8549 7.81823 16.5022 8.64535C16.3682 8.95491 16.2358 9.2656 16.1048 9.5774C15.8941 9.47301 15.6758 9.38457 15.4518 9.31284C15.8537 8.14528 16.2332 6.9688 16.6339 5.80124C17.2344 4.13473 17.8327 2.25502 17.4621 0.471312C17.4588 0.458297 17.452 0.446414 17.4425 0.436921C17.433 0.427427 17.4211 0.420666 17.4081 0.417354C17.3951 0.414042 17.3814 0.414293 17.3685 0.41809C17.3557 0.421887 17.344 0.429095 17.3349 0.438937C17.1759 0.621453 17.0332 0.81754 16.9085 1.02495C16.0769 2.38896 15.7845 3.97624 15.5635 5.53336C15.4317 6.42633 15.261 7.30365 15.117 8.18993C15.0626 8.52032 15.0098 8.85111 14.9585 9.18226C14.7266 9.13504 14.4916 9.10519 14.2553 9.09295C14.3669 7.86512 14.4461 6.62946 14.5533 5.39715C14.733 3.63912 14.858 1.67458 14.0666 0.0393237C14.0602 0.0274291 14.0507 0.0175015 14.0391 0.0105735C14.0275 0.00364558 14.0143 0 14.0008 0C13.9873 0 13.974 0.00364558 13.9624 0.0105735C13.9508 0.0175015 13.9413 0.0274291 13.9349 0.0393237C13.8251 0.254213 13.7343 0.478314 13.6637 0.709053C13.4632 1.36092 13.3506 2.0366 13.3288 2.71824C13.2763 3.61121 13.3567 4.50418 13.4471 5.39715C13.5587 6.62499 13.6369 7.86177 13.7451 9.09295C13.5088 9.10518 13.2738 9.13504 13.0419 9.18226C12.8488 7.96447 12.6312 6.75226 12.4381 5.53336C12.1858 3.7809 11.832 1.83979 10.6666 0.438937C10.6575 0.429095 10.6459 0.421887 10.633 0.41809C10.6201 0.414293 10.6064 0.414042 10.5934 0.417354C10.5804 0.420666 10.5685 0.427427 10.559 0.436921C10.5495 0.446414 10.5427 0.458297 10.5394 0.471312C10.4846 0.707129 10.4506 0.947281 10.4378 1.18903C10.402 1.87159 10.4571 2.55589 10.6019 3.22389C10.7682 4.10793 11.0629 4.95626 11.3665 5.80124C11.7683 6.97103 12.1478 8.14528 12.5486 9.31396C12.3246 9.38568 12.1063 9.47412 11.8956 9.57852C11.4122 8.43998 10.9055 7.3126 10.4211 6.17295C9.75133 4.53211 8.93537 2.72942 7.46643 1.65116C7.45532 1.64485 7.44279 1.64149 7.43002 1.6414C7.41724 1.64132 7.40466 1.64451 7.39346 1.65067C7.38227 1.65682 7.37284 1.66572 7.36608 1.67656C7.35931 1.68739 7.35543 1.6998 7.35481 1.71256C7.35905 1.95467 7.38444 2.19594 7.43071 2.43363C7.72651 4.00637 8.57149 5.38265 9.45106 6.69086C9.9489 7.44207 10.411 8.21116 10.9021 8.96683C11.0867 9.25482 11.2727 9.54205 11.4603 9.82855C11.2644 9.95443 11.0778 10.0943 10.9021 10.2471C10.1532 9.2537 9.38521 8.277 8.63511 7.28357C7.58587 5.85035 6.35468 4.29547 4.66585 3.60006C4.65311 3.59542 4.63935 3.59433 4.62603 3.5969C4.61272 3.59948 4.60036 3.60561 4.59027 3.61467C4.58018 3.62373 4.57274 3.63537 4.56875 3.64833C4.56476 3.66129 4.56437 3.67509 4.56762 3.68825C4.63055 3.92277 4.71384 4.15133 4.81653 4.37136C5.48626 5.82914 6.64266 6.96209 7.81469 8.02138C8.48442 8.63083 9.11731 9.26709 9.77588 9.88436C10.0281 10.1232 10.2819 10.361 10.5371 10.5976C10.374 10.7645 10.2229 10.9428 10.0851 11.1312C9.11285 10.3498 8.12611 9.57851 7.15166 8.78711C5.78206 7.64746 4.2082 6.43302 2.39546 6.16512C2.38168 6.16347 2.36771 6.16569 2.35512 6.17153C2.34253 6.17737 2.33181 6.18659 2.32416 6.19818C2.31651 6.20976 2.31224 6.22325 2.31182 6.23712C2.3114 6.251 2.31486 6.26472 2.3218 6.27675C2.44023 6.48914 2.57692 6.6908 2.73033 6.87949C3.73492 8.13412 5.13689 8.95789 6.53439 9.70464C7.33025 10.1366 8.10491 10.5976 8.89519 11.0441C9.20103 11.2167 9.50836 11.3879 9.81718 11.5576C9.70559 11.7572 9.6086 11.9646 9.52697 12.1782C8.38731 11.648 7.23761 11.1412 6.09684 10.6155C4.48502 9.83411 2.66001 9.03939 0.8283 9.21575C0.814943 9.21774 0.802372 9.22329 0.791926 9.23185C0.78148 9.24041 0.773546 9.25166 0.768967 9.26436C0.764389 9.27707 0.763337 9.29076 0.765922 9.30401C0.768507 9.31727 0.774632 9.32958 0.783649 9.33963C0.950755 9.51769 1.13301 9.68091 1.32836 9.82743C2.61424 10.803 4.17695 11.2651 5.71956 11.6535C6.59913 11.8768 7.46643 12.1458 8.34266 12.3836C8.68571 12.4781 9.02913 12.5711 9.37293 12.6626C9.31517 12.8825 9.27339 13.1064 9.24791 13.3323C8.00556 13.0923 6.75987 12.878 5.51529 12.6381C3.75613 12.273 1.7849 11.9382 0.0458321 12.5521C0.0334488 12.5573 0.0226938 12.5657 0.0146975 12.5765C0.0067011 12.5873 0.00176082 12.6001 0.000390512 12.6134C-0.000979799 12.6268 0.00127095 12.6403 0.0069104 12.6525C0.0125498 12.6647 0.021368 12.6751 0.0324381 12.6827C0.238708 12.8151 0.456068 12.9294 0.682076 13.0243C1.32139 13.2924 1.99313 13.4756 2.6801 13.569C3.58088 13.7163 4.49172 13.7308 5.40255 13.7364C6.67615 13.761 7.9464 13.8112 9.21889 13.8335C9.21889 13.848 9.21889 13.8626 9.21889 13.8771C9.21911 14.0849 9.23253 14.2926 9.25907 14.4988C7.98547 14.5669 6.71634 14.6617 5.44162 14.731C3.64005 14.8035 1.63756 14.9542 0.0893662 15.9744C0.078423 15.9824 0.0698421 15.9931 0.0645334 16.0056C0.0592247 16.018 0.0573868 16.0317 0.0592194 16.0451C0.0610519 16.0585 0.0664829 16.0711 0.0749366 16.0817C0.0833902 16.0922 0.0945472 16.1003 0.107223 16.105C0.340259 16.1836 0.579652 16.2418 0.82272 16.2792C1.51061 16.3845 2.20933 16.3995 2.90111 16.3238C3.81418 16.2479 4.70603 16.0414 5.59454 15.826C6.8447 15.5402 8.09821 15.2801 9.34726 14.9922C9.39748 15.2051 9.46237 15.4143 9.54148 15.6183C8.31364 15.9945 7.10143 16.3997 5.87471 16.7747C4.13788 17.2837 2.22134 17.9211 0.963365 19.2851C0.954862 19.2955 0.949302 19.308 0.94728 19.3212C0.945257 19.3345 0.946842 19.3481 0.951865 19.3605C0.956887 19.3729 0.965161 19.3838 0.975825 19.3919C0.986489 19.4001 0.999146 19.4052 1.01247 19.4068C1.25849 19.4261 1.50572 19.4243 1.75141 19.4012C2.44729 19.3358 3.13169 19.18 3.78739 18.938C4.65915 18.6422 5.47734 18.2247 6.29218 17.7983C7.44299 17.2156 8.60163 16.6575 9.75244 16.0749C10.07 16.6929 10.5191 17.234 11.0681 17.6599C11.6171 18.0859 12.2527 18.3865 12.9303 18.5406V20.9885C12.9303 23.5625 11.7929 26.1353 9.33944 27.8119C8.92086 27.3933 8.55809 26.9189 8.38173 26.4356C10.1777 25.3584 11.3743 23.1439 11.3743 20.7496V19.6724L10.5204 19.3912V20.619C10.5204 22.6751 9.6743 24.5023 8.31141 25.3875L7.2856 26.0717C7.69094 27.1857 8.38419 28.1724 9.29479 28.9314C12.2673 26.5349 13.8769 24.4911 13.8769 20.619V17.8809C12.8246 17.8495 11.8269 17.4055 11.0993 16.6446C10.3718 15.8838 9.97272 14.8672 9.98841 13.8146C10.0041 12.762 10.4333 11.7578 11.1832 11.019C11.9331 10.2802 12.9436 9.86605 13.9963 9.86605C15.049 9.86605 16.0595 10.2802 16.8094 11.019C17.5593 11.7578 17.9885 12.762 18.0042 13.8146C18.0199 14.8672 17.6208 15.8838 16.8932 16.6446C16.1657 17.4055 15.168 17.8495 14.1157 17.8809V20.619C14.1157 24.4923 15.7264 26.5349 18.6978 28.9314C19.6084 28.1724 20.3016 27.1857 20.707 26.0717L19.6801 25.3875C18.3183 24.5023 17.4722 22.6751 17.4722 20.619V19.3912L16.6339 19.6624V20.7395C16.6339 23.1338 17.8305 25.3484 19.6265 26.4255C19.4468 26.9044 19.0874 27.3833 18.6688 27.8018C16.2131 26.1275 15.0779 23.5524 15.0779 20.9784V18.5306C15.7555 18.3765 16.3911 18.0758 16.9401 17.6499C17.4891 17.2239 17.9382 16.6829 18.2558 16.0648C19.4044 16.6486 20.5641 17.2078 21.716 17.7905C23.3189 18.631 25.1361 19.5028 26.9924 19.3979C27.0057 19.3963 27.0184 19.3911 27.029 19.383C27.0397 19.3749 27.048 19.364 27.053 19.3516C27.058 19.3391 27.0596 19.3256 27.0576 19.3123C27.0556 19.299 27.05 19.2866 27.0415 19.2762C26.8782 19.0915 26.6993 18.9212 26.5068 18.7672C25.2377 17.7391 23.675 17.2168 22.129 16.7669C21.2472 16.5046 20.381 16.2088 19.5026 15.9331C19.1558 15.8237 18.8079 15.7162 18.4589 15.6105C18.5381 15.4061 18.603 15.1966 18.6531 14.9832C19.9011 15.2701 21.1546 15.5302 22.4047 15.8159C24.1583 16.2423 26.1229 16.6475 27.8932 16.0961C27.9058 16.0914 27.917 16.0833 27.9255 16.0727C27.9339 16.0622 27.9393 16.0495 27.9412 16.0361C27.943 16.0227 27.9412 16.0091 27.9359 15.9966C27.9306 15.9842 27.922 15.9734 27.911 15.9655C27.7087 15.826 27.4947 15.7043 27.2714 15.6016C26.6388 15.3109 25.9708 15.1042 25.2846 14.9866C24.386 14.808 23.4718 14.7633 22.5577 14.7231C21.2841 14.6539 20.0138 14.5591 18.7413 14.491C18.7679 14.2848 18.7813 14.0771 18.7815 13.8692C18.7815 13.8547 18.7815 13.8402 18.7815 13.8268C20.0529 13.8034 21.3231 13.7543 22.5967 13.7297C24.3927 13.7208 26.3919 13.6382 27.9691 12.676C27.9805 12.6677 27.9894 12.6563 27.9946 12.6432C27.9999 12.6301 28.0013 12.6157 27.9988 12.6018C27.9962 12.5879 27.9897 12.575 27.9801 12.5647C27.9705 12.5543 27.9582 12.5468 27.9445 12.5432Z" fill="#D4A76B"/>
<path d="M18.8809 29.0884C20.0462 30.0662 20.6668 30.6723 20.9927 31.2974C24.261 28.172 24.645 25.2174 24.645 23.254C24.645 22.159 24.645 21.7694 24.7566 21.0807L23.8067 20.6811H23.7464V23.4337C23.7464 25.9474 22.6693 28.7011 21.053 30.0774C20.746 29.6891 20.4054 29.3286 20.035 29.0002C21.591 27.5637 22.2496 25.2296 22.2496 22.9548C22.2496 22.0618 22.2496 20.9802 22.369 20.1419L21.351 19.7178V23.4928C21.3589 25.8078 20.544 27.6396 18.8809 29.0884Z" fill="#D4A76B"/>
<path d="M20.1562 37.8553H21.2311C21.0559 36.8987 21.0525 35.6229 21.1128 32.944C21.1127 32.5183 21.0441 32.0955 20.9097 31.6916C18.454 33.7253 17.7017 34.9599 17.7017 36.9523C17.7017 38.2003 17.7017 39.754 17.8791 40.7006V40.7229H18.9027C18.6638 39.7652 18.6036 38.688 18.6638 37.3743C18.6638 35.2791 19.2621 34.3214 20.2801 33.3648L20.3996 33.4251C20.1607 33.9642 20.1607 34.5022 20.1607 35.6397L20.1562 37.8553Z" fill="#D4A76B"/>
<path d="M24.8854 23.2532C24.9031 24.6232 24.6509 25.9833 24.1431 27.2559C23.5259 28.774 22.5291 30.1715 21.1003 31.5243C21.27 31.9351 21.3314 32.3737 21.3537 32.9441V32.9519C21.2934 35.6309 21.2957 36.8989 21.4709 37.8354V37.8577H22.4856C22.2467 36.9 22.2467 35.344 22.2467 34.5091C22.2467 33.6161 22.1864 32.7131 21.9476 32.0534C24.2816 29.7194 25.4793 27.2057 25.7784 24.2131C25.8387 23.4317 25.8978 22.2977 26.0775 21.6391L24.9803 21.177C24.8854 21.8077 24.8854 22.176 24.8854 23.2532Z" fill="#D4A76B"/>
<path d="M16.5664 37.1386V40.7294H17.6424C17.465 39.7561 17.465 38.2068 17.465 36.9588C17.465 34.6405 18.5399 33.3457 20.798 31.4827L20.8147 31.4671C20.5089 30.8442 19.9028 30.2526 18.6939 29.2402C16.5731 30.5462 14.1174 33.3881 14.1174 37.1386V41.6871H15.3095C15.0707 40.7294 15.0707 39.2929 15.0707 36.8986C15.0707 34.4429 15.909 32.2306 18.6615 30.3129C19.0516 30.6615 19.4119 31.0419 19.7387 31.4503C17.2294 32.9472 16.5664 35.0423 16.5664 37.1386Z" fill="#D4A76B"/>
<path d="M17.6408 13.8763C17.6408 13.1547 17.4268 12.4492 17.0259 11.8491C16.6249 11.2491 16.0551 10.7814 15.3883 10.5052C14.7216 10.229 13.9879 10.1567 13.2801 10.2975C12.5722 10.4383 11.9221 10.7858 11.4118 11.2962C10.9015 11.8065 10.5539 12.4566 10.4131 13.1645C10.2723 13.8723 10.3446 14.6059 10.6208 15.2727C10.897 15.9394 11.3646 16.5093 11.9647 16.9103C12.5648 17.3112 13.2702 17.5252 13.9919 17.5252C14.9593 17.5241 15.8867 17.1392 16.5708 16.4552C17.2548 15.7711 17.6397 14.8437 17.6408 13.8763ZM13.9919 16.7361C13.3331 16.7322 12.696 16.5002 12.1888 16.0797C11.6817 15.6591 11.3359 15.0758 11.2103 14.4291C11.0846 13.7824 11.1868 13.1121 11.4995 12.5322C11.8122 11.9523 12.3161 11.4986 12.9255 11.2483C13.535 10.998 14.2123 10.9664 14.8423 11.1591C15.4723 11.3517 16.0162 11.7566 16.3814 12.305C16.7466 12.8533 16.9107 13.5112 16.8456 14.1668C16.7805 14.8224 16.4904 15.4353 16.0246 15.9011C15.7578 16.1678 15.4408 16.3789 15.0919 16.5222C14.743 16.6655 14.3691 16.7382 13.9919 16.7361Z" fill="#D4A76B"/>
<path d="M19.8031 25.1869L20.7764 25.8355C21.007 25.0758 21.12 24.2853 21.1113 23.4914V19.6148L20.2183 19.2409H20.158V22.892C20.158 23.3709 20.2183 24.0886 20.3377 24.448L20.2183 24.5083C19.0217 23.3709 18.6623 22.354 18.6623 21.0972V19.002L17.7046 19.3123V20.6194C17.7024 22.594 18.5072 24.3453 19.8031 25.1869Z" fill="#D4A76B"/>
<path d="M43.4368 12.9299C43.5702 14.4823 43.6576 16.0261 43.6989 17.5612C43.7402 19.0964 43.7589 20.9782 43.7549 23.2069C43.7515 23.5384 43.7756 23.8697 43.8269 24.1972C43.8485 24.3215 43.882 24.4435 43.927 24.5613L43.7609 24.6774L35.6465 12.9299H34C34.3168 18.204 34.3168 23.4924 34 28.7666H36.1546C36.0213 27.2355 35.9339 25.723 35.8926 24.2292C35.8512 22.7355 35.8326 20.8956 35.8366 18.7096C35.8439 18.3656 35.8305 18.0216 35.7965 17.6793C35.7611 17.4888 35.7027 17.3034 35.6225 17.1271L35.7805 17.0091L43.897 28.7646H45.5835C45.2669 23.4904 45.2669 18.202 45.5835 12.9279L43.4368 12.9299Z" fill="#D9AC6B"/>
<path d="M57.3031 17.189C57.3404 18.6041 57.3591 20.378 57.3591 22.5106C57.3591 24.1898 57.061 25.4568 56.4648 26.3117C55.8687 27.1667 54.9897 27.5968 53.828 27.6021C52.709 27.6021 51.8461 27.1927 51.2393 26.3738C50.6324 25.5549 50.329 24.2638 50.329 22.5006C50.329 20.3666 50.3477 18.5928 50.385 17.179C50.4224 15.7653 50.5097 14.3455 50.6471 12.9197H47.8123C47.9456 14.3455 48.033 15.7653 48.0743 17.179C48.1157 18.5928 48.1343 20.3666 48.1303 22.5006C48.1303 26.8192 50.0416 28.9786 53.8641 28.9786C55.0471 28.9786 56.0107 28.7618 56.7549 28.3284C57.5346 27.8524 58.1228 27.1183 58.4174 26.2537C58.7815 25.3028 58.9636 24.0517 58.9636 22.5006C58.9636 20.3666 58.9823 18.5928 59.0196 17.179C59.057 15.7653 59.1443 14.3455 59.2817 12.9197H57.049C57.1811 14.3508 57.2657 15.7739 57.3031 17.189Z" fill="#D9AC6B"/>
<path d="M69.6624 21.3863C68.9388 20.8913 68.1851 20.4416 67.4057 20.0399L66.6055 19.5958C66.0987 19.3202 65.6144 19.0051 65.1571 18.6535C64.8112 18.3854 64.525 18.0482 64.3168 17.6632C64.1154 17.2663 64.0151 16.8259 64.0247 16.3809C64.0247 15.642 64.2521 15.0745 64.7069 14.6784C65.1617 14.2822 65.7899 14.0822 66.5915 14.0782C67.4464 14.0782 68.1133 14.2842 68.5921 14.6963C69.0695 15.1125 69.3835 15.6847 69.4784 16.3108L71.2529 15.3925C70.8607 14.557 70.2408 13.8491 69.4644 13.3499C68.7455 12.9178 67.8319 12.7011 66.7236 12.6997C65.9308 12.6947 65.1421 12.8149 64.3868 13.0559C63.6722 13.2806 63.0374 13.7064 62.5583 14.2822C62.0728 14.8638 61.8301 15.6346 61.8301 16.5949C61.8128 17.318 61.9845 18.0331 62.3282 18.6695C62.6556 19.2553 63.0939 19.7717 63.6186 20.19C64.2401 20.6734 64.9021 21.1025 65.5972 21.4724C65.7026 21.5351 65.9293 21.6564 66.2774 21.8365L66.5155 21.9625C67.0199 22.2316 67.5064 22.533 67.9719 22.8648C68.3563 23.1434 68.6865 23.4898 68.9462 23.8871C69.2038 24.2797 69.3389 24.74 69.3343 25.2095C69.3364 25.6252 69.2243 26.0335 69.0102 26.3898C68.7703 26.7744 68.4224 27.0799 68.0099 27.2681C67.4859 27.5054 66.9144 27.619 66.3394 27.6002C65.5524 27.6242 64.7757 27.4154 64.1068 27C63.4717 26.5792 62.9885 25.9656 62.7283 25.2495L61.1919 26.6119C61.7562 27.4003 62.5141 28.0301 63.3926 28.4404C64.3491 28.831 65.3767 29.0171 66.4094 28.9866C67.8552 28.9866 69.0669 28.7019 70.0445 28.1324C71.0222 27.5629 71.5103 26.5226 71.509 25.0114C71.5353 24.2513 71.3549 23.4984 70.9868 22.8328C70.6517 22.2631 70.2005 21.7702 69.6624 21.3863Z" fill="#D9AC6B"/>
<path d="M80.3938 12.9299H77.793C76.4833 18.2822 74.9155 23.5611 73.0896 28.7667H75.3063C75.5583 27.4143 75.8351 26.0945 76.1365 24.8075H82.3624C82.6625 26.0972 82.9392 27.4169 83.1926 28.7667H85.9475C84.1132 23.5706 82.5433 18.2849 81.244 12.9299H80.3938ZM82.0343 23.4291H76.4726C76.5586 23.083 76.6447 22.7348 76.7347 22.3927C77.2682 20.3494 77.9704 17.8654 78.8413 14.9405C78.9053 14.7284 78.9634 14.5184 79.0254 14.3063H79.4915L79.6816 14.9405C80.5365 17.8654 81.2334 20.3494 81.7722 22.3927C81.8602 22.7348 81.9462 23.083 82.0323 23.4291H82.0343Z" fill="#D9AC6B"/>
<path d="M97.5989 12.9299C97.7323 14.4824 97.8197 16.0261 97.861 17.5613C97.9024 19.0964 97.9211 20.9783 97.9171 23.207C97.9137 23.5385 97.9378 23.8697 97.9891 24.1972C98.0106 24.3216 98.0441 24.4435 98.0891 24.5614L97.9231 24.6754L89.8086 12.9279H88.1621C88.479 18.2021 88.479 23.4905 88.1621 28.7646H90.3168C90.1834 27.2335 90.0967 25.7211 90.0567 24.2273C90.0167 22.7335 89.998 20.8936 90.0007 18.7076C90.0078 18.3637 89.9945 18.0197 89.9607 17.6773C89.9251 17.4869 89.8667 17.3015 89.7866 17.1252L89.9447 17.0071L98.0611 28.7626H99.7556C99.4388 23.4885 99.4388 18.2001 99.7556 12.9259L97.5989 12.9299Z" fill="#D9AC6B"/>
<path d="M108.702 14.3583C110.303 14.3837 111.899 14.459 113.492 14.5844V12.9379H101.6V14.5844C103.201 14.451 104.797 14.3756 106.39 14.3583C106.474 16.727 106.508 18.9957 106.486 21.1483C106.459 23.7291 106.351 26.2712 106.161 28.7746H108.932C108.742 26.2726 108.634 23.7304 108.608 21.1483C108.584 18.9877 108.618 16.721 108.702 14.3583Z" fill="#D9AC6B"/>
<path d="M120.772 12.9299H118.171C116.86 18.2835 115.293 23.5611 113.47 28.7626H115.686C115.938 27.4102 116.215 26.0905 116.517 24.8034H122.742C123.043 26.0932 123.319 27.4129 123.573 28.7626H126.328C124.493 23.5666 122.923 18.2809 121.624 12.9259L120.772 12.9299ZM122.412 23.429H116.851C116.937 23.0829 117.023 22.7348 117.113 22.3927C117.646 20.3494 118.349 17.8653 119.219 14.9405C119.283 14.7284 119.341 14.5184 119.403 14.3063H119.87L120.06 14.9405C120.915 17.8653 121.611 20.3494 122.15 22.3927C122.238 22.7348 122.324 23.0829 122.406 23.429H122.412Z" fill="#D9AC6B"/>
<path d="M135.927 21.0123C136.001 20.9823 136.077 20.9523 136.149 20.9203C136.877 20.5965 137.497 20.0718 137.937 19.4078C138.408 18.6718 138.645 17.8104 138.617 16.9371C138.617 15.554 138.166 14.5404 137.263 13.8962C136.36 13.252 135.191 12.9299 133.756 12.9299H128.554C128.871 18.2041 128.871 23.4925 128.554 28.7667H131.295C131.074 26.4993 130.944 24.1366 130.907 21.6785C130.907 21.5905 130.907 21.5045 130.907 21.4165H133.768H133.94C134.523 22.6368 135.033 23.7471 135.471 24.7474C136.067 26.1092 136.587 27.4503 137.031 28.7707H139.882C139.111 27.4823 138.393 26.1706 137.727 24.8355C137.155 23.6965 136.555 22.4221 135.927 21.0123ZM133.758 20.04H130.885C130.877 18.1301 130.906 16.2189 130.971 14.3063H133.758C134.624 14.3063 135.299 14.5177 135.785 14.9405C136.27 15.3633 136.513 16.0602 136.513 17.0312C136.513 18.0021 136.27 18.7463 135.785 19.2638C135.299 19.7813 134.624 20.04 133.758 20.04Z" fill="#D9AC6B"/>
<path d="M149.294 12.9299H145.841C144.532 18.2822 142.964 23.5611 141.138 28.7667H143.355C143.607 27.4143 143.883 26.0945 144.185 24.8075H150.415C150.715 26.0972 150.992 27.4169 151.245 28.7667H154C152.165 23.5707 150.594 18.285 149.294 12.9299ZM144.519 23.4291C144.605 23.083 144.691 22.7348 144.781 22.3927C145.315 20.3494 146.017 17.8654 146.888 14.9405C146.952 14.7284 147.01 14.5184 147.072 14.3063H147.538L147.728 14.9405C148.583 17.8654 149.28 20.3494 149.819 22.3927C149.909 22.7348 149.995 23.083 150.081 23.4291H144.519Z" fill="#D9AC6B"/>
</svg>
