<svg width="43" height="42" viewBox="0 0 43 42" fill="none" xmlns="http://www.w3.org/2000/svg">
<path fill-rule="evenodd" clip-rule="evenodd" d="M36.6047 32.6983C38.8859 32.7297 40.9074 31.2159 41.5503 28.9985C42.1932 26.7749 41.303 24.3943 39.3742 23.1631C37.4455 21.932 34.9418 22.1581 33.2541 23.7159C33.8909 20.7322 32.8338 17.6355 30.5279 15.6883C28.2159 13.7348 25.026 13.2448 22.2565 14.4194C19.4808 15.594 17.5768 18.2385 17.3171 21.285C15.8273 20.4558 14.0283 20.437 12.5261 21.241C11.0239 22.045 10.0163 23.5589 9.84935 25.28C8.55733 24.7021 7.05512 24.9345 5.99183 25.8767C4.92236 26.8189 4.4958 28.3013 4.88526 29.6832C5.27473 31.0588 6.4122 32.0827 7.80313 32.3088C8.89115 32.6983 11.2444 32.8281 14.8629 32.6983C22.1081 32.7569 29.3554 32.7569 36.6047 32.6983Z" fill="#ADC7C2"/>
<path fill-rule="evenodd" clip-rule="evenodd" d="M4.17238 9.9828C6.21153 12.9429 5.39477 14.2913 1.73308 13.6445C4.78084 15.7768 4.42454 17.2788 0.888916 17.9311C4.42454 18.5779 4.80276 20.1402 1.76049 22.2725C5.42218 21.6312 6.21701 22.9248 4.17786 25.8794C7.13244 23.8402 8.45898 24.668 7.81763 28.3297C9.94997 25.2819 11.5067 25.6437 12.1536 29.1793C12.8004 25.6437 14.2914 25.3093 16.4237 28.3571C15.7769 24.6954 17.1473 23.8676 20.1073 25.9068C18.0682 22.9467 18.8411 21.6421 22.5028 22.289C19.455 20.1566 19.8826 18.5779 23.4182 17.9311C19.8826 17.2788 19.4989 15.7056 22.5412 13.5678C18.8795 14.2146 18.0737 12.9209 20.1128 9.96087C17.1582 12 15.8975 11.1723 16.5388 7.51061C14.3188 10.5529 12.8278 10.2021 12.1536 6.66644C11.4793 10.2021 9.98286 10.6022 7.76282 7.55446C8.40416 11.2162 7.12695 12.0219 4.17238 9.9828Z" fill="#C6A372"/>
<path fill-rule="evenodd" clip-rule="evenodd" d="M12.154 25.2868C16.2104 25.2868 19.5158 21.9759 19.5158 17.9196C19.5158 13.8687 16.2104 10.5578 12.154 10.5578C8.09763 10.5578 4.79224 13.8687 4.79224 17.9196C4.79224 21.9759 8.09763 25.2868 12.154 25.2868Z" fill="#EAAE5A"/>
<path opacity="0.6" fill-rule="evenodd" clip-rule="evenodd" d="M12.1532 10.5578C15.1571 10.5578 17.5854 12.575 17.5854 15.0582C17.5854 17.5468 15.1571 19.5586 12.1532 19.5586C9.14929 19.5586 6.72095 17.5468 6.72095 15.0582C6.72095 12.575 9.14929 10.5578 12.1532 10.5578Z" fill="#FFC16A"/>
<path opacity="0.5" fill-rule="evenodd" clip-rule="evenodd" d="M5.43286 20.9349C7.12119 22.8809 9.57146 23.9991 12.1533 23.9991C14.7351 23.9991 17.1854 22.8809 18.8737 20.9349C17.6897 23.5825 15.0585 25.2873 12.1533 25.2873C9.24804 25.2873 6.61688 23.5825 5.43286 20.9349Z" fill="#CE9C54"/>
<path fill-rule="evenodd" clip-rule="evenodd" d="M35.6104 32.3199C37.6331 32.3473 39.4256 31.0262 39.9957 29.0912C40.5658 27.1507 39.7764 25.0732 38.0662 23.9988C36.3559 22.9244 34.1359 23.1218 32.6394 24.4812C33.204 21.8774 32.2667 19.175 30.222 17.4757C28.1719 15.771 25.3434 15.3434 22.8877 16.3685C20.4264 17.3935 18.7381 19.7013 18.5079 22.3598C17.1868 21.6363 15.5917 21.6198 14.2597 22.3215C12.9276 23.0231 12.0341 24.3442 11.8861 25.8461C10.7405 25.3418 9.40846 25.5446 8.46563 26.3669C7.51732 27.1891 7.13909 28.4828 7.48443 29.6887C7.82977 30.8892 8.83838 31.7827 10.0717 31.98C11.0365 32.3199 13.1231 32.4332 16.3317 32.3199C22.7561 32.371 29.1824 32.371 35.6104 32.3199Z" fill="white"/>
<path opacity="0.1" fill-rule="evenodd" clip-rule="evenodd" d="M25.8639 15.8203C28.8678 15.8203 31.3016 17.832 31.3016 20.3206C31.3016 22.8038 28.8678 24.821 25.8639 24.821C22.8655 24.821 20.4316 22.8038 20.4316 20.3206C20.4316 17.832 22.8655 15.8203 25.8639 15.8203Z" fill="#EAF1F0"/>
<path fill-rule="evenodd" clip-rule="evenodd" d="M35.6104 32.3196C37.6331 32.347 39.4256 31.0259 39.9957 29.0909C40.5438 27.2272 39.8367 25.2264 38.2525 24.1246C38.1922 24.0807 38.0826 23.9273 38.0662 23.9985C35.9996 31.9304 14.9339 32.8458 11.8861 25.8458C11.8569 25.8312 11.8258 25.8184 11.793 25.8074C10.6692 25.3525 9.38106 25.5662 8.46563 26.3666C7.51732 27.1888 7.13909 28.4824 7.48443 29.6884C7.82977 30.8889 8.83838 31.7824 10.0717 31.9797C11.0365 32.3196 13.1231 32.4328 16.3317 32.3196C22.7561 32.3707 29.1824 32.3707 35.6104 32.3196Z" fill="#EAF1F0"/>
<mask id="mask0_267_26617" style="mask-type:alpha" maskUnits="userSpaceOnUse" x="4" y="13" width="38" height="20">
<path fill-rule="evenodd" clip-rule="evenodd" d="M36.6047 32.6987C38.8859 32.7301 40.9074 31.2163 41.5503 28.999C42.1932 26.7754 41.303 24.3947 39.3742 23.1636C37.4455 21.9324 34.9418 22.1585 33.2541 23.7163C33.8909 20.7327 32.8338 17.6359 30.5279 15.6887C28.2159 13.7352 25.026 13.2452 22.2565 14.4198C19.4808 15.5945 17.5768 18.2389 17.3171 21.2854C15.8273 20.4563 14.0283 20.4374 12.5261 21.2414C11.0239 22.0455 10.0163 23.5593 9.84935 25.2804C8.55733 24.7025 7.05512 24.9349 5.99183 25.8771C4.92236 26.8193 4.4958 28.3017 4.88526 29.6836C5.27473 31.0593 6.4122 32.0831 7.80313 32.3093C8.89115 32.6987 11.2444 32.8285 14.8629 32.6987C22.1081 32.7573 29.3554 32.7573 36.6047 32.6987Z" fill="#ADC7C2"/>
<path fill-rule="evenodd" clip-rule="evenodd" d="M35.6104 32.3197C37.6331 32.3471 39.4256 31.026 39.9957 29.091C40.5658 27.1505 39.7764 25.073 38.0662 23.9986C36.3559 22.9243 34.1359 23.1216 32.6394 24.481C33.204 21.8773 32.2667 19.1748 30.222 17.4756C28.1719 15.7708 25.3434 15.3432 22.8877 16.3683C20.4264 17.3933 18.7381 19.7011 18.5079 22.3596C17.1868 21.6361 15.5917 21.6196 14.2597 22.3213C12.9276 23.0229 12.0341 24.344 11.8861 25.8459C10.7405 25.3416 9.40846 25.5444 8.46563 26.3667C7.51732 27.1889 7.13909 28.4826 7.48443 29.6885C7.82977 30.889 8.83838 31.7825 10.0717 31.9798C11.0365 32.3197 13.1231 32.433 16.3317 32.3197C22.7561 32.3708 29.1824 32.3708 35.6104 32.3197Z" fill="white"/>
</mask>
<g mask="url(#mask0_267_26617)">
<rect opacity="0.06" x="25.7514" y="11.9209" width="20.7639" height="25.2778" fill="#443D32" stroke="#443D32" stroke-width="0.902778"/>
</g>
<ellipse opacity="0.1" cx="22.5918" cy="38.7084" rx="19.8611" ry="2.70833" fill="#327267"/>
</svg>
