<svg width="20" height="20" viewBox="0 0 20 20" fill="none" xmlns="http://www.w3.org/2000/svg">
<path fill-rule="evenodd" clip-rule="evenodd" d="M12.4007 1.62341C11.01 0.46452 8.98998 0.464517 7.59931 1.62341L2.37442 5.97748C1.66195 6.57121 1.25 7.45074 1.25 8.37817V15C1.25 17.071 2.92893 18.75 5 18.75H15C17.0711 18.75 18.75 17.071 18.75 15V8.37817C18.75 7.45074 18.3381 6.57122 17.6256 5.97748L12.4007 1.62341ZM9.19977 3.54396C9.66333 3.15767 10.3367 3.15767 10.8002 3.54397L16.0251 7.89804C16.1676 8.01678 16.25 8.19269 16.25 8.37817V15C16.25 15.6903 15.6904 16.25 15 16.25H13.75V11.875C13.75 10.8395 12.9105 10 11.875 10H8.125C7.08947 10 6.25 10.8395 6.25 11.875V16.25H5C4.30964 16.25 3.75 15.6903 3.75 15V8.37817C3.75 8.19269 3.83239 8.01678 3.97488 7.89804L9.19977 3.54396ZM8.75 16.25H11.25V12.5H8.75V16.25Z" fill="#443D32"/>
</svg>
